<svg xmlns="http://www.w3.org/2000/svg" width="1600" height="900" viewBox="0 0 1600 900">
<defs>
  <filter id="shadow" x="-20%" y="-20%" width="140%" height="140%">
    <feDropShadow dx="0" dy="5" stdDeviation="8" flood-color="#15324D" flood-opacity="0.12"/>
  </filter>
  <marker id="arrow" markerWidth="10" markerHeight="10" refX="8" refY="5" orient="auto">
    <path d="M0,0 L10,5 L0,10 z" fill="#163A63"/>
  </marker>
</defs>
<rect width="1600" height="900" fill="#F7F9FC"/>
<rect x="0" y="0" width="1600" height="92" fill="#163A63"/>
<text x="55" y="47" fill="white" font-family="Arial, Helvetica, sans-serif" font-size="30" font-weight="700">Pipeline de ingesta — flujo completo</text>
<text x="55" y="74" fill="#BBD6EC" font-family="Arial, Helvetica, sans-serif" font-size="15">De múltiples fuentes a datos listos para operación y análisis</text>
<rect x="55" y="180" width="155" height="360" rx="16" fill="#FFFFFF" stroke="#1976D2" stroke-width="2" filter="url(#shadow)"/>
<rect x="55" y="180" width="155" height="52" rx="16" fill="#1976D2"/>
<rect x="55" y="218" width="155" height="14" fill="#1976D2"/>
<text x="75" y="213" fill="white" font-family="Arial" font-size="19" font-weight="700">1. Ingesta</text>
<circle cx="80" cy="258" r="4" fill="#1976D2"/>
<text x="95" y="264" fill="#19324D" font-family="Arial" font-size="16">CSV / JSON</text>
<circle cx="80" cy="288" r="4" fill="#1976D2"/>
<text x="95" y="294" fill="#19324D" font-family="Arial" font-size="16">API / DB</text>
<circle cx="80" cy="318" r="4" fill="#1976D2"/>
<text x="95" y="324" fill="#19324D" font-family="Arial" font-size="16">Web / otros</text><line x1="210" y1="360" x2="223" y2="360" stroke="#163A63" stroke-width="3" marker-end="url(#arrow)"/><rect x="223" y="180" width="155" height="360" rx="16" fill="#FFFFFF" stroke="#1597D4" stroke-width="2" filter="url(#shadow)"/>
<rect x="223" y="180" width="155" height="52" rx="16" fill="#1597D4"/>
<rect x="223" y="218" width="155" height="14" fill="#1597D4"/>
<text x="243" y="213" fill="white" font-family="Arial" font-size="19" font-weight="700">2. Validación</text>
<circle cx="248" cy="258" r="4" fill="#1597D4"/>
<text x="263" y="264" fill="#19324D" font-family="Arial" font-size="16">Esquema</text>
<circle cx="248" cy="288" r="4" fill="#1597D4"/>
<text x="263" y="294" fill="#19324D" font-family="Arial" font-size="16">Campos</text>
<circle cx="248" cy="318" r="4" fill="#1597D4"/>
<text x="263" y="324" fill="#19324D" font-family="Arial" font-size="16">Quality Gate</text><line x1="378" y1="360" x2="391" y2="360" stroke="#163A63" stroke-width="3" marker-end="url(#arrow)"/><rect x="391" y="180" width="155" height="360" rx="16" fill="#FFFFFF" stroke="#7357C8" stroke-width="2" filter="url(#shadow)"/>
<rect x="391" y="180" width="155" height="52" rx="16" fill="#7357C8"/>
<rect x="391" y="218" width="155" height="14" fill="#7357C8"/>
<text x="411" y="213" fill="white" font-family="Arial" font-size="19" font-weight="700">3. Normalización</text>
<circle cx="416" cy="258" r="4" fill="#7357C8"/>
<text x="431" y="264" fill="#19324D" font-family="Arial" font-size="16">Formatos</text>
<circle cx="416" cy="288" r="4" fill="#7357C8"/>
<text x="431" y="294" fill="#19324D" font-family="Arial" font-size="16">Catálogos</text>
<circle cx="416" cy="318" r="4" fill="#7357C8"/>
<text x="431" y="324" fill="#19324D" font-family="Arial" font-size="16">Datos canónicos</text><line x1="546" y1="360" x2="559" y2="360" stroke="#163A63" stroke-width="3" marker-end="url(#arrow)"/><rect x="559" y="180" width="155" height="360" rx="16" fill="#FFFFFF" stroke="#E88922" stroke-width="2" filter="url(#shadow)"/>
<rect x="559" y="180" width="155" height="52" rx="16" fill="#E88922"/>
<rect x="559" y="218" width="155" height="14" fill="#E88922"/>
<text x="579" y="213" fill="white" font-family="Arial" font-size="19" font-weight="700">4. Deduplicación</text>
<circle cx="584" cy="258" r="4" fill="#E88922"/>
<text x="599" y="264" fill="#19324D" font-family="Arial" font-size="16">Reglas</text>
<circle cx="584" cy="288" r="4" fill="#E88922"/>
<text x="599" y="294" fill="#19324D" font-family="Arial" font-size="16">Matching</text>
<circle cx="584" cy="318" r="4" fill="#E88922"/>
<text x="599" y="324" fill="#19324D" font-family="Arial" font-size="16">Registro maestro</text><line x1="714" y1="360" x2="727" y2="360" stroke="#163A63" stroke-width="3" marker-end="url(#arrow)"/><rect x="727" y="180" width="155" height="360" rx="16" fill="#FFFFFF" stroke="#1976D2" stroke-width="2" filter="url(#shadow)"/>
<rect x="727" y="180" width="155" height="52" rx="16" fill="#1976D2"/>
<rect x="727" y="218" width="155" height="14" fill="#1976D2"/>
<text x="747" y="213" fill="white" font-family="Arial" font-size="19" font-weight="700">5. Catalog Matching</text>
<circle cx="752" cy="258" r="4" fill="#1976D2"/>
<text x="767" y="264" fill="#19324D" font-family="Arial" font-size="16">SKU / modelo</text>
<circle cx="752" cy="288" r="4" fill="#1976D2"/>
<text x="767" y="294" fill="#19324D" font-family="Arial" font-size="16">Similitud</text>
<circle cx="752" cy="318" r="4" fill="#1976D2"/>
<text x="767" y="324" fill="#19324D" font-family="Arial" font-size="16">Confianza</text><line x1="882" y1="360" x2="895" y2="360" stroke="#163A63" stroke-width="3" marker-end="url(#arrow)"/><rect x="895" y="180" width="155" height="360" rx="16" fill="#FFFFFF" stroke="#159A6C" stroke-width="2" filter="url(#shadow)"/>
<rect x="895" y="180" width="155" height="52" rx="16" fill="#159A6C"/>
<rect x="895" y="218" width="155" height="14" fill="#159A6C"/>
<text x="915" y="213" fill="white" font-family="Arial" font-size="19" font-weight="700">6. Enriquecimiento IA</text>
<circle cx="920" cy="258" r="4" fill="#159A6C"/>
<text x="935" y="264" fill="#19324D" font-family="Arial" font-size="16">Conversaciones</text>
<circle cx="920" cy="288" r="4" fill="#159A6C"/>
<text x="935" y="294" fill="#19324D" font-family="Arial" font-size="16">Intención</text>
<circle cx="920" cy="318" r="4" fill="#159A6C"/>
<text x="935" y="324" fill="#19324D" font-family="Arial" font-size="16">Perfil</text><line x1="1050" y1="360" x2="1063" y2="360" stroke="#163A63" stroke-width="3" marker-end="url(#arrow)"/><rect x="1063" y="180" width="155" height="360" rx="16" fill="#FFFFFF" stroke="#7357C8" stroke-width="2" filter="url(#shadow)"/>
<rect x="1063" y="180" width="155" height="52" rx="16" fill="#7357C8"/>
<rect x="1063" y="218" width="155" height="14" fill="#7357C8"/>
<text x="1083" y="213" fill="white" font-family="Arial" font-size="19" font-weight="700">7. Scoring</text>
<circle cx="1088" cy="258" r="4" fill="#7357C8"/>
<text x="1103" y="264" fill="#19324D" font-family="Arial" font-size="16">Histórico</text>
<circle cx="1088" cy="288" r="4" fill="#7357C8"/>
<text x="1103" y="294" fill="#19324D" font-family="Arial" font-size="16">Modelo</text>
<circle cx="1088" cy="318" r="4" fill="#7357C8"/>
<text x="1103" y="324" fill="#19324D" font-family="Arial" font-size="16">Ajuste IA</text><line x1="1218" y1="360" x2="1231" y2="360" stroke="#163A63" stroke-width="3" marker-end="url(#arrow)"/><rect x="1231" y="180" width="155" height="360" rx="16" fill="#FFFFFF" stroke="#E88922" stroke-width="2" filter="url(#shadow)"/>
<rect x="1231" y="180" width="155" height="52" rx="16" fill="#E88922"/>
<rect x="1231" y="218" width="155" height="14" fill="#E88922"/>
<text x="1251" y="213" fill="white" font-family="Arial" font-size="19" font-weight="700">8. Asignación</text>
<circle cx="1256" cy="258" r="4" fill="#E88922"/>
<text x="1271" y="264" fill="#19324D" font-family="Arial" font-size="16">Capacidad</text>
<circle cx="1256" cy="288" r="4" fill="#E88922"/>
<text x="1271" y="294" fill="#19324D" font-family="Arial" font-size="16">Reglas</text>
<circle cx="1256" cy="318" r="4" fill="#E88922"/>
<text x="1271" y="324" fill="#19324D" font-family="Arial" font-size="16">Prioridad</text><line x1="1386" y1="360" x2="1399" y2="360" stroke="#163A63" stroke-width="3" marker-end="url(#arrow)"/><rect x="1399" y="180" width="155" height="360" rx="16" fill="#FFFFFF" stroke="#163A63" stroke-width="2" filter="url(#shadow)"/>
<rect x="1399" y="180" width="155" height="52" rx="16" fill="#163A63"/>
<rect x="1399" y="218" width="155" height="14" fill="#163A63"/>
<text x="1419" y="213" fill="white" font-family="Arial" font-size="19" font-weight="700">9. Persistencia</text>
<circle cx="1424" cy="258" r="4" fill="#163A63"/>
<text x="1439" y="264" fill="#19324D" font-family="Arial" font-size="16">PostgreSQL</text>
<circle cx="1424" cy="288" r="4" fill="#163A63"/>
<text x="1439" y="294" fill="#19324D" font-family="Arial" font-size="16">Auditoría</text>
<circle cx="1424" cy="318" r="4" fill="#163A63"/>
<text x="1439" y="324" fill="#19324D" font-family="Arial" font-size="16">Reportes</text><rect x="350" y="610" width="900" height="100" rx="14" fill="#FFFFFF" stroke="#159A6C" stroke-width="2" filter="url(#shadow)"/>
<text x="800.0" y="644" text-anchor="middle" fill="#159A6C" font-family="Arial" font-size="18" font-weight="700">Salida del pipeline</text>
<text x="800.0" y="672" text-anchor="middle" fill="#60758A" font-family="Arial" font-size="14">Lead canónico + score + explicación + asesor sugerido + trazabilidad</text><line x1="790" y1="540" x2="790" y2="610" stroke="#163A63" stroke-width="3" marker-end="url(#arrow)"/></svg>